<?xml version="1.0" standalone="yes"?>
<svg width="207" height="202">
<path style="fill:#ffffff; stroke:none;" d="M0 0L0 202L90 202C87.3873 200.902 84.8355 201.007 82 201C87.8694 199.265 93.5056 200.535 99.4861 200.664C104.952 200.783 110.498 200 116 200C113.271 200.81 110.85 200.979 108 201C116.118 204.407 129.203 202 138 202L207 202L207 76L207 47C206.998 41.9733 207.465 37.6591 202 36C203.801 35.4382 205.122 35.1759 207 35L207 0L106 0C112.606 2.77303 122.768 2.93681 130 4C125.382 5.26662 121.625 3.62825 117 3.05402C109.669 2.14381 102.398 1.71539 95 2.03935C74.7654 2.9254 56.8174 11.4622 40 22C52.3373 8.14711 76.9838 1.14915 95 1C87.121 -2.30615 74.5339 0 66 0L0 0z"/>
<path style="fill:#000000; stroke:none;" d="M40 22C45.9646 19.3936 51.1118 15.2802 57 12.4606C68.5575 6.92638 81.2361 3.38933 94 2.16975C106.46 0.979248 117.826 4.89786 130 5C124.033 1.25075 115.868 1.27396 109 0.962189C91.5823 0.171494 75.1923 2.03694 59 9.14507C52.4987 11.999 43.7118 15.7045 40 22z"/>
<path style="fill:#ffffff; stroke:none;" d="M96 0L97 1L96 0z"/>
<path style="fill:#1a1a1a; stroke:none;" d="M100.667 0.333328C100.222 0.777832 101.278 0.722198 101.333 0.666672C101.778 0.22226 100.722 0.277756 100.667 0.333328M104.667 0.333328C104.222 0.777832 105.278 0.722214 105.333 0.666672C105.778 0.22226 104.722 0.277771 104.667 0.333328M112.667 2.33333C112.222 2.77782 113.278 2.72224 113.333 2.66667C113.778 2.22226 112.722 2.27776 112.667 2.33333z"/>
<path style="fill:#000000; stroke:none;" d="M130 5C135.141 8.66071 141.934 10.0682 147.576 13.0139C161.19 20.1218 175.152 30.5099 183 44L175 45L175 48C177.723 47.2977 181.155 45.9983 183.907 47.1983C187.009 48.5512 188.628 52.1744 190.076 55C192.934 60.5735 195.731 66.1592 198 72C199.956 64.8702 191.095 52.6628 187 47C191.307 47.324 194.016 49.837 198 51L193 46L199 47C195.178 44.1047 190.555 45.5088 186 45L186 43C189.555 41.8708 193.285 40.5375 197 40.0741C200.796 39.6006 203.609 41.5683 206 38C204.805 38.5977 205.023 38.4661 204 40C202.25 38.7451 201.143 38.3863 199 38L202 35C198.53 34.7974 195.811 38.1254 193 40L194 35C191.034 38.5691 188.166 40.9188 184 43C177.165 28.5304 160.915 17.6151 147 10.7562C141.584 8.08669 136.095 5.31621 130 5M39 22L40 23L39 22M37 23C17.2687 40.2377 1.00299 64.9326 1 92C2.09687 89.4641 1.94299 85.741 4.43364 84.0278C7.24311 82.0952 12.6632 82.4901 16 81.5046C21.7366 79.8104 27.3577 78.5576 33 76.4715C38.8105 74.3232 44.7014 71.0538 51 72C46.6492 74.395 43.6299 74.5278 43 80C44.9743 78.0322 46.3225 76.804 49 76L43 83C46.4525 82.0527 48.341 80.305 51 78C51.0276 75.2537 51.468 74.3202 53 72L54 77L58 73C58.7794 76.3269 58.4467 77.4141 55 78C56.9958 80.0892 58.4901 79.1755 61 78C60.4928 75.5636 59.8804 73.3258 59 71C75.9129 71 94.807 68.3185 110 77C108.979 74.8919 108.366 73.2956 108 71C99.2648 71 91.3286 68.8095 82.7145 68.1551C75.4503 67.6033 68.1429 68.7006 61 67C76.0616 57.4211 91.3267 60.4437 108 58.8302C122.288 57.4476 136.645 53.0396 151 53C146.051 49.8071 142.592 48.0928 141 42L145 42C143.307 40.9377 141.96 40.4804 140 40C138.86 44.722 141.04 47.776 143 52C134.807 53.9506 128.959 50.0931 121 50C122.079 46.9638 123.396 44.1751 124 41L117 51L128 51C119.544 60.1507 102.689 52.0295 92 52C92.472 53.4161 92.8137 53.8137 94 55C67.3108 55.221 44.5573 70.3391 19 75.4861C14.6717 76.3578 10.3291 75.5241 6 76L5 75C9.51908 62.589 14.1267 50.6753 22.4275 40.1698C26.0954 35.5276 36.5917 28.7555 37 23M190 35C191.513 34.4289 192.427 34.1364 194 34C192.181 32.0594 191.305 32.92 190 35M127 34C133.411 36.6901 142.115 34.6273 149 35.044C152.899 35.2799 156.249 37.1525 160 38C150.383 30.8421 138.335 34 127 34M110 35C111.248 35.6848 111.548 35.7488 113 36C111.752 35.3152 111.452 35.2512 110 35M188.333 35.6667C188.278 35.7222 188.222 36.7778 188.667 36.3333C188.722 36.2778 188.778 35.2222 188.333 35.6667M202 35L207 38C206.346 34.9461 204.993 35.0642 202 35z"/>
<path style="fill:#1a1a1a; stroke:none;" d="M109.667 36.3333C109.222 36.7778 110.278 36.7222 110.333 36.6667C110.778 36.2222 109.722 36.2778 109.667 36.3333z"/>
<path style="fill:#000000; stroke:none;" d="M107.667 37.3333C107.222 37.7778 108.278 37.7222 108.333 37.6667C108.778 37.2222 107.722 37.2778 107.667 37.3333M161 38L167 44C164.272 44.1591 161.715 44.3046 159 44L161 48C163.948 45.8825 165.894 44.777 169 47L172 44C168.724 41.3289 164.967 39.4256 161 38M186 38L187 39L186 38M105 39L104 41C105.263 40.0287 105.392 40.3063 105 39M172 41L173 42L172 41M102 42C100.814 43.1863 100.472 43.5838 100 45C101.849 44.0326 102.722 43.86 102 42M156.333 42.6667C156.278 42.7222 156.222 43.7778 156.667 43.3333C156.722 43.2778 156.778 42.2222 156.333 42.6667M98.6667 46.3333C98.2222 46.7778 99.2778 46.7222 99.3333 46.6667C99.7778 46.2222 98.7222 46.2778 98.6667 46.3333M61 54L66 54C64.4939 53.317 63.6852 53.1741 62 53C64.3456 50.2699 66.5513 49.0248 70 48C65.2806 46.2324 61.7754 49.3891 61 54M76 47C82.4352 49.8889 90.3414 50.024 97 48C94.2591 47.0169 91.8859 47.8253 89 47.821C84.6726 47.8146 80.365 47.0029 76 47M151 48C152.377 48.9114 153.44 49.4038 155 50L155 52L152 53C153.631 54.3658 155.038 55.1418 157 56C156.355 51.7277 155.555 48.7886 151 48M201 48L200 50L202 50C202 48.1468 202.3 48.6499 201 48M75 51C77.5599 52.9418 79.8078 52.965 83 53C80.4725 51.908 77.6982 51.6515 75 51M174 51C173.11 52.7448 172.547 54.125 172 56C173.554 54.2178 174.242 53.3293 174 51M70 52C71.506 52.683 72.3148 52.8259 74 53C72.4939 52.317 71.6852 52.1741 70 52M87 53L88 54L87 53M89.6667 53.3333C89.2222 53.7778 90.2778 53.7222 90.3333 53.6667C90.7777 53.2222 89.7222 53.2778 89.6667 53.3333z"/>
<path style="fill:#ffffff; stroke:none;" d="M93 56C96.4324 57.4403 100.3 57 104 57C100.568 55.5597 96.7002 56 93 56z"/>
<path style="fill:#000000; stroke:none;" d="M158 56C159.103 57.4566 159.543 57.8966 161 59C159.897 57.5433 159.457 57.1034 158 56M171 57L170 59C171.263 58.0287 171.392 58.3062 171 57M162 59C164.379 61.1727 165.809 61.423 169 61C166.749 59.9115 164.465 59.4813 162 59z"/>
<path style="fill:#ffffff; stroke:none;" d="M66 61C67.8092 61.5743 68.0688 61.4653 70 61C68.1908 60.4257 67.9312 60.5347 66 61M4 77L4 81C16.7244 80.0592 26.1546 76.4299 38 72.304C47.383 69.0358 56.0486 67.4732 65 63C59.9237 61.2246 50.056 66.8304 45 68.6312C37.5984 71.2673 29.6924 74.9833 22 76.5216C16.2214 77.6772 9.86999 77 4 77z"/>
<path style="fill:#1a1a1a; stroke:none;" d="M59.6667 63.3333C59.2222 63.7778 60.2778 63.7222 60.3333 63.6667C60.7778 63.2222 59.7222 63.2778 59.6667 63.3333z"/>
<path style="fill:#000000; stroke:none;" d="M118.667 64.3333C118.222 64.7778 119.278 64.7222 119.333 64.6667C119.778 64.2222 118.722 64.2778 118.667 64.3333M115 65C113.12 67.1086 111.421 68.5467 109 70C111.94 70.423 114.115 69.8004 117 71L120 69C118.303 68.3661 116.83 68.1851 115 68C115.545 66.3648 115.365 66.545 117 66C116.35 64.7003 116.853 65 115 65M121 65L121 68C121.696 66.4463 121.696 66.5537 121 65z"/>
<path style="fill:#ffffff; stroke:none;" d="M60 68L61 69L60 68z"/>
<path style="fill:#000000; stroke:none;" d="M45 69L46 70L45 69z"/>
<path style="fill:#ffffff; stroke:none;" d="M54 70C54.994 72.2035 54.6699 72.0475 57 72C55.8606 70.9845 55.3885 70.6913 54 70z"/>
<path style="fill:#000000; stroke:none;" d="M124 74L125 75L124 74M199.333 74.6667C199.278 74.7223 199.222 75.7778 199.667 75.3333C199.722 75.2778 199.778 74.2222 199.333 74.6667z"/>
<path style="fill:#1a1a1a; stroke:none;" d="M25.6667 75.3333C25.2222 75.7777 26.2778 75.7222 26.3333 75.6667C26.7778 75.2222 25.7222 75.2778 25.6667 75.3333z"/>
<path style="fill:#000000; stroke:none;" d="M126 75L127 76L126 75M112 77C115.474 79.7771 120.019 80.9876 124 83C123.062 78.5983 116.071 77.4447 112 77M121.667 77.3333C121.222 77.7778 122.278 77.7222 122.333 77.6667C122.778 77.2222 121.722 77.2778 121.667 77.3333M200 77L201 84C202.078 81.2268 201.663 79.4353 200 77M115 87C118.317 87.7877 121.587 88.7576 124 86C121.581 86.2008 119.409 86.2717 117 86L117 84L121 83C117.596 82.0696 116.312 84.0253 115 87M202 86L202 117C205.962 109.547 205.424 93.6279 202 86M0 93L0 108C1.74044 103.852 1.74044 97.1477 0 93M108 103C113.818 105.013 118.387 99.0372 124 98.2392C129.421 97.4685 134.547 100.842 140 101C134.545 97.3987 126.345 95.8972 120 97.8002C115.788 99.0634 112.241 101.753 108 103z"/>
<path style="fill:#a0a0a0; stroke:none;" d="M129 99L130 100L129 99z"/>
<path style="fill:#000000; stroke:none;" d="M145 101C146.73 107.979 136.608 108.467 132 110.529C128.75 111.984 126.023 114.18 123.709 116.87C119.966 121.222 120.894 125.684 120.076 131C119.131 137.147 117.255 142.273 115 148C111.318 141.382 114.854 133.336 112 126L109 127C110.364 128.819 110.492 128.031 110 130C113.038 134.289 110.96 139.118 111.049 144C111.147 149.439 114.659 154.741 114.447 160C114.319 163.168 112.273 166.182 111 169C109.575 166.006 109.387 163.283 109 160C107.666 163.092 107.424 166.647 107 170C118.683 169.113 115.351 157.165 115 149C121.837 148.797 126.104 145.485 130 140C125.838 142.264 122.564 145.486 118 147C119.396 143.596 120.741 140.71 121 137C128.004 135.588 132.869 129.617 140 128C138.422 131.105 135.586 132.921 134 136C136.015 135.061 138.618 134.219 140.089 132.455C142.507 129.555 140.327 127.033 136.981 127.399C131.332 128.017 127.108 132.953 122 135C118.682 117.94 134.713 111.087 148 107L148 101L145 101M100 106C102.631 106.966 104.473 106.082 107 105C104.249 104.035 102.611 104.748 100 106M99 107C93.5464 108.757 86.6753 117.557 96.0424 119.958C98.332 120.544 100.815 119.594 103 119C97.6091 126.579 90.0271 129.083 82 133.086C66.7104 140.713 51.5453 150.636 34 151C38.5708 152.918 44.1026 151.743 49 152C51.815 149.518 55.7456 149.002 58 146C64.4752 146.013 70.3151 140.895 76 138.094C83.589 134.355 93.2664 131.422 99.787 126.022C103.323 123.094 105.111 118.602 108.42 115.404C111.57 112.36 115.756 110.808 118 107L120 108L121 104C112.763 106.794 106.84 114.088 99.0147 117.522C96.6715 118.551 93.061 117.92 93.6034 114.571C94.0559 111.777 97.3576 109.177 99 107M1 110C1.0037 115.58 1.87737 120.558 3 126C4.81302 121.553 2.86267 114.316 1 110z"/>
<path style="fill:#b7b7b7; stroke:none;" d="M95 113L96 114L95 113z"/>
<path style="fill:#a0a0a0; stroke:none;" d="M125 113L126 114L125 113z"/>
<path style="fill:#000000; stroke:none;" d="M201 120C200.232 123.357 199.3 126.56 199 130C201.062 126.875 202.392 123.602 201 120z"/>
<path style="fill:#3e3e3e; stroke:none;" d="M120 124L119 131C120.663 128.565 121.078 126.773 120 124z"/>
<path style="fill:#000000; stroke:none;" d="M4 127C4.76542 134.481 8.99213 141.003 11.446 148C12.3967 150.711 11.662 154.087 13.1929 156.54C15.4702 160.189 20.7814 162.059 23.7454 165.304C38.2759 181.213 59.0401 199.511 82 200C75.8918 196.574 68.4387 195.503 62 192.547C47.3665 185.829 33.2939 175.246 24 162C33.7213 162.81 40.3211 159.394 49 156C49.3067 158.123 49.3821 158.686 51 160C51.1815 158.462 51.2256 158.366 52 157C47.1654 152.662 41.6996 158.175 36 158C36 160.436 35.2139 159.615 33 159C33 161.911 30.5766 161 28 161C23.5707 161 19.422 159.796 16 156.833C14.1276 155.212 12.055 151.971 16 151.5C17.4819 151.323 19.4469 151.978 21 152L27 152C23.1357 150.375 18.6913 151.338 15.2099 148.486C8.72332 143.172 9.00175 133.258 4 127z"/>
<path style="fill:#a0a0a0; stroke:none;" d="M119 128L120 129L119 128z"/>
<path style="fill:#ffffff; stroke:none;" d="M121 137C120.503 140.538 118.88 143.562 118 147C124.774 145.651 127.783 140.337 132.627 135.964C135.607 133.273 138.761 131.978 140 128C132.559 128.969 127.912 134.792 121 137z"/>
<path style="fill:#212121; stroke:none;" d="M113 131L113 134C113.696 132.446 113.696 132.554 113 131z"/>
<path style="fill:#cbcbcb; stroke:none;" d="M114 131L114 134C114.696 132.446 114.696 132.554 114 131z"/>
<path style="fill:#575757; stroke:none;" d="M119 131L119 135C119.71 133.241 119.71 132.759 119 131z"/>
<path style="fill:#000000; stroke:none;" d="M198 131L196 138C197.836 135.692 198.797 133.889 198 131z"/>
<path style="fill:#3e3e3e; stroke:none;" d="M129 132L130 133L129 132M128 133L129 134L128 133z"/>
<path style="fill:#575757; stroke:none;" d="M114 134L114 138C114.71 136.241 114.71 135.759 114 134z"/>
<path style="fill:#3e3e3e; stroke:none;" d="M133.333 134.667C133.278 134.722 133.222 135.778 133.667 135.333C133.722 135.278 133.778 134.222 133.333 134.667z"/>
<path style="fill:#575757; stroke:none;" d="M132 136L133 137L132 136M118 137L118 140C118.696 138.446 118.696 138.554 118 137M130 137L131 138L130 137z"/>
<path style="fill:#212121; stroke:none;" d="M131 137L132 138L131 137M130 138L131 139L130 138z"/>
<path style="fill:#3e3e3e; stroke:none;" d="M129 139L130 140L129 139z"/>
<path style="fill:#000000; stroke:none;" d="M195 139C191.987 143.692 188.918 148.762 187 154C190.66 150.742 195.757 144.088 195 139M99 140C99.7155 145.952 99.6528 149.79 103 155L94 156C97.0502 159.486 103.614 157.024 108 159C107.018 155.215 104.612 152.543 103.088 149C101.604 145.551 102.247 142.294 99 140z"/>
<path style="fill:#3e3e3e; stroke:none;" d="M113 140L114 141L113 140z"/>
<path style="fill:#b8b8b8; stroke:none;" d="M127 140L128 141L127 140z"/>
<path style="fill:#3e3e3e; stroke:none;" d="M128 140L129 141L128 140M117.333 142.667C117.278 142.722 117.222 143.778 117.667 143.333C117.722 143.278 117.778 142.222 117.333 142.667z"/>
<path style="fill:#000000; stroke:none;" d="M98 143L99 144L98 143z"/>
<path style="fill:#212121; stroke:none;" d="M112.333 143.667C112.278 143.722 112.222 144.778 112.667 144.333C112.722 144.278 112.778 143.222 112.333 143.667z"/>
<path style="fill:#a0a0a0; stroke:none;" d="M113 144L114 145L113 144z"/>
<path style="fill:#575757; stroke:none;" d="M116 144L117 145L116 144M69 153L70 154L69 153z"/>
<path style="fill:#000000; stroke:none;" d="M68 154C71.4219 162.078 68.1371 169.006 66 177C68.3771 176.428 70.558 176.11 73 176C71.7517 175.315 71.4516 175.251 70 175C70.1193 170.875 71.7007 167.033 71 163C73.0658 163.081 74.0529 163.286 76 164C81.5262 160.777 87.9725 160.911 94 159C90.4605 157.6 87.6245 159.101 84 159.492C80.2993 159.89 76.709 159.334 73 160L71 154L68 154z"/>
<path style="fill:#6d6d6d; stroke:none;" d="M71 154L71 157C71.6961 155.446 71.6961 155.554 71 154z"/>
<path style="fill:#000000; stroke:none;" d="M185 155C181.236 160.928 176.774 166.321 171.536 171.015C167.678 174.472 162.536 177.482 160 182C170.431 175.802 181.314 165.812 187 155L185 155z"/>
<path style="fill:#575757; stroke:none;" d="M108 156L109 157L108 156z"/>
<path style="fill:#212121; stroke:none;" d="M108.333 158.667C108.278 158.722 108.222 159.778 108.667 159.333C108.722 159.278 108.778 158.222 108.333 158.667z"/>
<path style="fill:#ffffff; stroke:none;" d="M78 160L79 161L78 160M80 160L81 161L80 160z"/>
<path style="fill:#000000; stroke:none;" d="M48 161C48.7485 165.709 50.275 168.633 55 170C53.0018 166.896 50.3979 163.837 48 161M76 165L77 166L76 165M75 167C74.8631 170.56 75.5731 171.911 79 173L75 167M55 170C58.9523 174.33 59.4414 176.149 59 182L61 182C61 176.122 62.0748 170.814 55 170z"/>
<path style="fill:#212121; stroke:none;" d="M67.3333 171.667C67.2778 171.722 67.2222 172.778 67.6667 172.333C67.7222 172.278 67.7778 171.222 67.3333 171.667z"/>
<path style="fill:#000000; stroke:none;" d="M71 171L72 172L71 171M79 173L82 180L77 179C79.6181 181.667 81.4055 181.952 85 181C83.6407 177.495 81.9707 175.299 79 173M73 176C74.1393 177.015 74.6116 177.309 76 178C75.0198 176.217 75.0924 176.406 73 176M67 177C67.9802 178.783 67.9076 178.594 70 179C68.8606 177.985 68.3884 177.691 67 177M76 178L77 179L76 178M70 179C72.3359 181.3 74.5055 183.056 76 186L70 185C74.2457 188.606 80.0081 185.266 75.3364 180.742C73.8411 179.294 71.9313 179.22 70 179M61 182C63.8195 183.772 66.7139 184.515 70 185C67.7322 182.021 64.5815 182.077 61 182M151 188C154.273 186.44 156.687 184.794 159 182C155.579 183.382 152.889 184.793 151 188M145 190C147.022 190.269 148.043 189.808 150 189C147.86 188.59 147.038 189.032 145 190M138 193C140.37 193.589 141.707 192.955 144 192C141.631 191.492 140.268 192.06 138 193M130 196C132.605 196.729 134.45 195.921 137 195C134.318 194.112 132.597 194.906 130 196M117 199C120.771 200.535 124.214 199.002 128 198C124.426 196.76 120.718 198.63 117 199M82 200C92.3986 204.404 105.147 201.09 116 201C111.638 199.17 106.403 200.106 101.745 200.279C95.2028 200.523 88.5592 200 82 200z"/>
</svg>
